<svg width="28" height="59" viewBox="0 0 28 59" fill="none" xmlns="http://www.w3.org/2000/svg">
<path d="M13.564 58.82C9.19067 58.82 5.856 57.59 3.56 55.13C1.264 52.6153 0.116 49.0347 0.116 44.388V39.878H8.644V45.044C8.644 48.7613 10.202 50.62 13.318 50.62C16.434 50.62 17.992 48.7613 17.992 45.044V32.17C17.992 28.398 16.434 26.512 13.318 26.512C10.202 26.512 8.644 28.398 8.644 32.17V32.662H0.116L1.756 0.599996H25.536V8.8H9.792L9.054 22.494H9.218C10.9127 19.706 13.5093 18.312 17.008 18.312C20.288 18.312 22.7753 19.4327 24.47 21.674C26.1647 23.9153 27.012 27.168 27.012 31.432V44.388C27.012 49.0347 25.864 52.6153 23.568 55.13C21.272 57.59 17.9373 58.82 13.564 58.82Z" fill="#DF8741"/>
</svg>
