<svg width="60" height="60" viewBox="0 0 60 60" fill="none" xmlns="http://www.w3.org/2000/svg">
<path d="M0.198 52.768C0.198 48.668 0.854 45.1693 2.166 42.272C3.478 39.32 5.82867 36.0673 9.218 32.514C12.5527 28.9607 14.8487 25.9267 16.106 23.412C17.418 20.8973 18.074 18.2733 18.074 15.54C18.074 13.08 17.664 11.3853 16.844 10.456C16.0787 9.472 14.9307 8.98 13.4 8.98C10.284 8.98 8.726 10.866 8.726 14.638V20.788H0.198V15.212C0.198 10.5653 1.346 7.012 3.642 4.552C5.938 2.03733 9.27267 0.779997 13.646 0.779997C18.0193 0.779997 21.354 2.03733 23.65 4.552C25.946 7.012 27.094 10.5653 27.094 15.212C27.094 18.7107 26.2467 22.1273 24.552 25.462C22.912 28.7967 20.042 32.6233 15.942 36.942C13.2633 39.7847 11.4593 42.108 10.53 43.912C9.60067 45.6613 9.136 47.5473 9.136 49.57V50.8H26.274V59H0.198V52.768ZM46.396 59.82C42.0227 59.82 38.688 58.59 36.392 56.13C34.096 53.6153 32.948 50.0347 32.948 45.388V40.878H41.476V46.044C41.476 49.7613 43.034 51.62 46.15 51.62C49.266 51.62 50.824 49.7613 50.824 46.044V33.17C50.824 29.398 49.266 27.512 46.15 27.512C43.034 27.512 41.476 29.398 41.476 33.17V33.662H32.948L34.588 1.6H58.368V9.8H42.624L41.886 23.494H42.05C43.7447 20.706 46.3414 19.312 49.84 19.312C53.12 19.312 55.6074 20.4327 57.302 22.674C58.9967 24.9153 59.844 28.168 59.844 32.432V45.388C59.844 50.0347 58.696 53.6153 56.4 56.13C54.104 58.59 50.7694 59.82 46.396 59.82Z" fill="#DF8741"/>
</svg>
