<svg width="62" height="62" viewBox="0 0 62 62" fill="none" xmlns="http://www.w3.org/2000/svg">
<path d="M31.0014 51.1089L14.4562 61.649C14.0693 61.8958 13.6214 62.0172 13.1688 61.998C12.7162 61.9788 12.2791 61.8199 11.9125 61.5412C11.5459 61.2624 11.2662 60.8764 11.1085 60.4315C10.9509 59.9867 10.9224 59.503 11.0265 59.0412L15.4851 39.2986L0.798658 26.0738C0.455358 25.7643 0.207063 25.3555 0.0849934 24.8986C-0.0370759 24.4418 -0.0274693 23.9574 0.112605 23.5062C0.252679 23.0551 0.516968 22.6574 0.872238 22.3632C1.22751 22.0689 1.6579 21.8913 2.10929 21.8526L21.4105 20.1943L28.8823 1.47806C29.057 1.04024 29.3514 0.666321 29.7285 0.403323C30.1055 0.140325 30.5484 0 31.0014 0C31.4544 0 31.8973 0.140325 32.2743 0.403323C32.6514 0.666321 32.9458 1.04024 33.1205 1.47806L40.5923 20.1943L59.8935 21.8526C60.3446 21.8918 60.7746 22.0699 61.1295 22.3643C61.4843 22.6588 61.7482 23.0565 61.8879 23.5075C62.0276 23.9586 62.0369 24.4428 61.9147 24.8994C61.7926 25.356 61.5443 25.7645 61.2011 26.0738L46.5177 39.2986L50.9763 59.0412C51.0804 59.503 51.0519 59.9867 50.8943 60.4315C50.7366 60.8764 50.4569 61.2624 50.0903 61.5412C49.7237 61.8199 49.2866 61.9788 48.834 61.998C48.3814 62.0172 47.9335 61.8958 47.5466 61.649L31.0014 51.1089Z" fill="#DF8741"/>
</svg>
