<svg width="69" height="53" viewBox="0 0 69 53" fill="none" xmlns="http://www.w3.org/2000/svg">
<path fill-rule="evenodd" clip-rule="evenodd" d="M28.7422 52.0003C27.5706 53.1718 25.6711 53.1718 24.4995 52.0003L1.12087 28.6216C-0.0507073 27.45 -0.0507075 25.5505 1.12086 24.379L24.4995 1.00027C25.6711 -0.171307 27.5706 -0.171307 28.7422 1.00027C29.9138 2.17184 29.9138 4.07133 28.7422 5.2429L15.6061 18.3789C13.7163 20.2688 15.0548 23.5003 17.7275 23.5003L65.2422 23.5003C66.899 23.5003 68.2422 24.8434 68.2422 26.5003C68.2422 28.1571 66.899 29.5003 65.2422 29.5003L17.7275 29.5003C15.0548 29.5003 13.7162 32.7317 15.6061 34.6216L28.7422 47.7576C29.9138 48.9292 29.9138 50.8287 28.7422 52.0003Z" fill="white"/>
</svg>
