<svg width="24" height="20" viewBox="0 0 24 20" fill="none" xmlns="http://www.w3.org/2000/svg">
<path fill-rule="evenodd" clip-rule="evenodd" d="M20 2C20 2.82843 19.3284 3.5 18.5 3.5H1.5C0.671573 3.5 0 2.82843 0 2C0 1.17157 0.671573 0.5 1.5 0.5H18.5C19.3284 0.5 20 1.17157 20 2Z" fill="white"/>
<path fill-rule="evenodd" clip-rule="evenodd" d="M24 10C24 10.8284 23.3284 11.5 22.5 11.5H1.5C0.671573 11.5 0 10.8284 0 10C0 9.17157 0.671573 8.5 1.5 8.5H22.5C23.3284 8.5 24 9.17157 24 10Z" fill="white"/>
<path fill-rule="evenodd" clip-rule="evenodd" d="M16 18C16 18.8284 15.3284 19.5 14.5 19.5H1.5C0.671573 19.5 0 18.8284 0 18C0 17.1716 0.671573 16.5 1.5 16.5H14.5C15.3284 16.5 16 17.1716 16 18Z" fill="white"/>
</svg>
