<svg width="18" height="18" viewBox="0 0 18 18" fill="none" xmlns="http://www.w3.org/2000/svg">
<path fill-rule="evenodd" clip-rule="evenodd" d="M17.488 17.4099C16.9022 17.9957 15.9525 17.9957 15.3667 17.4099L0.517465 2.56066C-0.0683216 1.97488 -0.0683216 1.02513 0.517465 0.439344C1.10325 -0.146442 2.053 -0.146442 2.63879 0.439344L17.488 15.2886C18.0738 15.8744 18.0738 16.8241 17.488 17.4099Z" fill="white"/>
<path fill-rule="evenodd" clip-rule="evenodd" d="M17.4888 0.43934C18.0746 1.02513 18.0746 1.97487 17.4888 2.56066L2.63959 17.4099C2.05381 17.9957 1.10406 17.9957 0.518271 17.4099C-0.0675152 16.8241 -0.067515 15.8744 0.518271 15.2886L15.3675 0.43934C15.9533 -0.146447 16.903 -0.146447 17.4888 0.43934Z" fill="white"/>
</svg>
