<svg width="132" height="132" viewBox="0 0 132 132" fill="none" xmlns="http://www.w3.org/2000/svg">
<path d="M110 61.6736V40.1518C110 36.1318 106.973 31.5725 103.214 30.0528L76.0201 18.8752C69.9174 16.3749 63.0336 16.3749 56.9309 18.8752L29.7374 30.0528C26.0269 31.5725 23 36.1318 23 40.1518V61.6736C23 85.6466 40.3317 108.1 64.01 114.669C65.6211 115.11 67.3787 115.11 68.9898 114.669C92.6683 108.1 110 85.6466 110 61.6736ZM70.1615 70.2529V83.1463C70.1615 85.1563 68.5016 86.8231 66.4999 86.8231C64.4982 86.8231 62.8383 85.1563 62.8383 83.1463V70.2529C57.9073 68.6841 54.2947 64.0758 54.2947 58.634C54.2947 51.8687 59.7625 46.378 66.4999 46.378C73.2373 46.378 78.7053 51.8687 78.7053 58.634C78.7053 64.1248 75.0925 68.6841 70.1615 70.2529Z" fill="#DF8741"/>
</svg>
