<svg width="23" height="20" viewBox="0 0 23 20" fill="none" xmlns="http://www.w3.org/2000/svg">
<path d="M0.0859375 19.6099V14.9424C0.0859375 13.3737 0.343099 11.7407 0.857422 10.0435C1.39746 8.32048 2.16895 6.67464 3.17188 5.10596C4.1748 3.51156 5.38346 2.13574 6.79785 0.978516L10.8481 3.79443C9.6652 5.4917 8.75228 7.2404 8.10938 9.04053C7.46647 10.8149 7.14502 12.7437 7.14502 14.8267V19.6099H0.0859375ZM12.2368 19.6099V14.9424C12.2368 13.3737 12.494 11.7407 13.0083 10.0435C13.5483 8.32048 14.3198 6.67464 15.3228 5.10596C16.3257 3.51156 17.5343 2.13574 18.9487 0.978516L22.999 3.79443C21.8161 5.4917 20.9032 7.2404 20.2603 9.04053C19.6173 10.8149 19.2959 12.7437 19.2959 14.8267V19.6099H12.2368Z" fill="#DF8741"/>
</svg>
