<svg width="132" height="132" viewBox="0 0 132 132" fill="none" xmlns="http://www.w3.org/2000/svg">
<path d="M66 17C38.9315 17 17 38.9315 17 66C17 93.0686 38.9315 115 66 115C93.0686 115 115 93.0686 115 66C115 38.9315 93.0686 17 66 17ZM81.8064 50.1936C85.3036 50.1936 88.129 53.019 88.129 56.5161C88.129 60.0133 85.3036 62.8387 81.8064 62.8387C78.3093 62.8387 75.4839 60.0133 75.4839 56.5161C75.4839 53.019 78.3093 50.1936 81.8064 50.1936ZM50.1936 50.1936C53.6907 50.1936 56.5161 53.019 56.5161 56.5161C56.5161 60.0133 53.6907 62.8387 50.1936 62.8387C46.6964 62.8387 43.871 60.0133 43.871 56.5161C43.871 53.019 46.6964 50.1936 50.1936 50.1936ZM88.6823 83.8218C83.0512 90.579 74.7923 94.4516 66 94.4516C57.2077 94.4516 48.9488 90.579 43.3177 83.8218C40.6306 80.6012 45.4911 76.5706 48.1782 79.7714C52.604 85.0863 59.0847 88.1093 66 88.1093C72.9153 88.1093 79.396 85.0665 83.8218 79.7714C86.4694 76.5706 91.3496 80.6012 88.6823 83.8218Z" fill="#DF8741"/>
</svg>
