<svg width="31" height="31" viewBox="0 0 31 31" fill="none" xmlns="http://www.w3.org/2000/svg">
<path d="M15.5007 25.5544L7.22809 30.8245C7.03465 30.9479 6.81069 31.0086 6.58438 30.999C6.35808 30.9894 6.13953 30.9099 5.95624 30.7706C5.77295 30.6312 5.6331 30.4382 5.55427 30.2158C5.47545 29.9934 5.46118 29.7515 5.51325 29.5206L7.74255 19.6493L0.399329 13.0369C0.227679 12.8822 0.103531 12.6777 0.0424967 12.4493C-0.018538 12.2209 -0.0137347 11.9787 0.0563025 11.7531C0.12634 11.5275 0.258484 11.3287 0.436119 11.1816C0.613754 11.0345 0.82895 10.9456 1.05465 10.9263L10.7053 10.0971L14.4412 0.739028C14.5285 0.520122 14.6757 0.333161 14.8642 0.201662C15.0528 0.0701626 15.2742 0 15.5007 0C15.7272 0 15.9486 0.0701626 16.1372 0.201662C16.3257 0.333161 16.4729 0.520122 16.5602 0.739028L20.2961 10.0971L29.9468 10.9263C30.1723 10.9459 30.3873 11.0349 30.5647 11.1822C30.7422 11.3294 30.8741 11.5283 30.9439 11.7538C31.0138 11.9793 31.0185 12.2214 30.9574 12.4497C30.8963 12.678 30.7721 12.8823 30.6005 13.0369L23.2589 19.6493L25.4882 29.5206C25.5402 29.7515 25.526 29.9934 25.4471 30.2158C25.3683 30.4382 25.2284 30.6312 25.0452 30.7706C24.8619 30.9099 24.6433 30.9894 24.417 30.999C24.1907 31.0086 23.9667 30.9479 23.7733 30.8245L15.5007 25.5544Z" fill="#DF8741"/>
</svg>
