<svg width="132" height="132" viewBox="0 0 132 132" fill="none" xmlns="http://www.w3.org/2000/svg">
<path d="M65.4639 98.9462L66.5361 99C102.308 99 98.0159 75.7632 132 60.7473C111.968 60.7473 90.8619 33 79.0566 33C67.251 33 66.5361 44.937 66.5361 44.937L66.3246 45.9664C66.3246 45.9664 64.749 33.0022 52.9434 33.0022C41.1381 33.0022 20.0316 60.6392 0 60.6392C33.9843 75.6548 29.6902 98.9462 65.4639 98.9462ZM101.506 61.3748C87.5556 64.771 82.9934 72.4587 66.5833 72.4587C50.8882 72.4587 37.206 61.3748 31.6608 61.3748C31.6583 61.3748 85.4062 62.0001 101.506 61.3748Z" fill="#DF8741"/>
</svg>
