<svg width="234" height="218" viewBox="0 0 234 218" fill="none" xmlns="http://www.w3.org/2000/svg">
<path d="M74.7393 14.8626C71.0169 4.67187 63.5417 4.69556 56.089 3.85667C42.7687 2.35732 20.2038 15.9572 16.865 45.6197C14.1287 69.9288 21.8574 97.7456 53.5124 141.62C84.0617 183.963 127.648 208.993 165.765 212.598C203.882 216.205 215.389 184.385 216.632 173.343C217.183 168.449 214.417 165.664 212.398 164.765C200.134 157.091 177.527 142.82 172.332 140.033C167.137 137.245 163.965 139.868 162.019 141.27C156.558 145.41 145.221 158.15 141.521 160.886C137.823 163.623 133.009 161.485 131.063 160.075C123.763 156.15 104.073 144.607 89.3532 126.749C71.1466 104.665 70.7137 97.7217 67.5465 91.2295C65.0132 86.035 67.6076 83.3162 68.881 82.1427C73.8546 77.5651 80.815 70.4152 83.9797 66.8296C87.143 63.2423 85.6453 57.0887 84.7606 53.2621C80.9583 36.8007 77.7182 23.0145 74.7393 14.8626Z" fill="white"/>
</svg>
